<?xml version="1.0" encoding="utf-8"?>
<svg version="1.1" x="0px" y="0px" style="enable-background:new 0 0 100 100;" viewBox="0 0 102 97" xmlns="http://www.w3.org/2000/svg">
  <defs/>
  <path d="M 17.897 17.351 C 18.384 17.351 18.863 17.269 19.331 17.108 C 20.325 17.934 21.553 18.38 22.853 18.38 C 24.154 18.38 25.381 17.934 26.376 17.108 C 26.844 17.269 27.324 17.351 27.81 17.351 C 30.203 17.351 32.151 15.475 32.34 13.108 C 33.078 12.901 33.773 12.559 34.376 12.058 C 34.844 12.22 35.324 12.302 35.81 12.302 C 38.328 12.302 40.377 10.233 40.377 7.689 C 40.377 5.146 38.328 3.077 35.81 3.077 C 35.324 3.077 34.844 3.159 34.376 3.321 C 33.381 2.495 32.154 2.048 30.853 2.048 C 29.554 2.048 28.326 2.495 27.331 3.321 C 26.863 3.159 26.383 3.077 25.897 3.077 C 23.504 3.077 21.557 4.953 21.367 7.321 C 20.629 7.528 19.934 7.87 19.331 8.371 C 18.863 8.209 18.384 8.128 17.897 8.128 C 15.379 8.128 13.33 10.196 13.33 12.74 C 13.33 15.282 15.379 17.351 17.897 17.351 Z M 25.897 5.097 C 26.292 5.097 26.687 5.2 27.073 5.403 C 27.47 5.61 27.953 5.529 28.26 5.203 C 29.637 3.739 32.07 3.739 33.447 5.203 C 33.754 5.529 34.239 5.609 34.635 5.403 C 35.019 5.2 35.415 5.097 35.81 5.097 C 37.225 5.097 38.377 6.261 38.377 7.689 C 38.377 9.12 37.225 10.281 35.81 10.281 C 35.414 10.281 35.019 10.18 34.635 9.977 C 34.24 9.769 33.755 9.851 33.447 10.177 C 32.071 11.64 29.636 11.64 28.26 10.177 C 28.066 9.971 27.803 9.863 27.535 9.863 C 27.377 9.863 27.219 9.899 27.073 9.977 C 26.688 10.18 26.292 10.281 25.897 10.281 C 24.482 10.281 23.33 9.12 23.33 7.689 C 23.33 6.261 24.482 5.097 25.897 5.097 Z M 17.897 10.148 C 18.292 10.148 18.688 10.249 19.073 10.452 C 19.47 10.661 19.954 10.579 20.26 10.252 C 20.654 9.834 21.138 9.549 21.655 9.37 C 22.322 11.083 23.967 12.302 25.897 12.302 C 26.384 12.302 26.864 12.22 27.331 12.058 C 28.187 12.768 29.219 13.178 30.317 13.286 C 30.068 14.453 29.04 15.332 27.81 15.332 C 27.414 15.332 27.019 15.229 26.635 15.026 C 26.24 14.819 25.755 14.901 25.447 15.226 C 24.071 16.69 21.636 16.69 20.26 15.226 C 20.067 15.02 19.803 14.913 19.535 14.913 C 19.377 14.913 19.219 14.95 19.073 15.026 C 18.688 15.229 18.292 15.332 17.897 15.332 C 16.482 15.332 15.33 14.169 15.33 12.74 C 15.33 11.31 16.482 10.148 17.897 10.148 Z M 66.897 17.351 C 67.384 17.351 67.864 17.269 68.331 17.108 C 69.326 17.934 70.554 18.38 71.854 18.38 C 73.154 18.38 74.382 17.934 75.377 17.108 C 75.844 17.269 76.324 17.351 76.81 17.351 C 79.328 17.351 81.377 15.282 81.377 12.74 C 81.377 10.196 79.328 8.128 76.81 8.128 C 76.324 8.128 75.844 8.209 75.377 8.371 C 74.382 7.545 73.154 7.097 71.854 7.097 C 70.554 7.097 69.326 7.545 68.331 8.371 C 67.864 8.209 67.384 8.128 66.897 8.128 C 64.38 8.128 62.331 10.196 62.331 12.74 C 62.331 15.282 64.38 17.351 66.897 17.351 Z M 66.897 10.148 C 67.293 10.148 67.688 10.249 68.072 10.452 C 68.468 10.66 68.953 10.579 69.26 10.252 C 70.637 8.79 73.07 8.788 74.448 10.252 C 74.755 10.579 75.24 10.661 75.636 10.452 C 76.019 10.249 76.415 10.148 76.81 10.148 C 78.225 10.148 79.377 11.31 79.377 12.74 C 79.377 14.169 78.225 15.332 76.81 15.332 C 76.415 15.332 76.019 15.229 75.636 15.026 C 75.239 14.819 74.754 14.9 74.448 15.226 C 73.071 16.69 70.637 16.69 69.26 15.226 C 69.066 15.02 68.803 14.913 68.535 14.913 C 68.378 14.913 68.219 14.95 68.072 15.026 C 67.688 15.229 67.293 15.332 66.897 15.332 C 65.482 15.332 64.331 14.169 64.331 12.74 C 64.331 11.31 65.482 10.148 66.897 10.148 Z M 41.346 42.76 L 34.59 42.76 C 34.038 42.76 33.59 43.211 33.59 43.77 L 33.59 50.121 C 33.59 50.679 34.038 51.131 34.59 51.131 L 41.346 51.131 C 41.898 51.131 42.346 50.679 42.346 50.121 L 42.346 43.77 C 42.346 43.211 41.898 42.76 41.346 42.76 Z M 40.346 49.111 L 35.59 49.111 L 35.59 44.78 L 40.346 44.78 L 40.346 49.111 Z M 53.292 42.76 L 46.536 42.76 C 45.983 42.76 45.536 43.211 45.536 43.77 L 45.536 50.121 C 45.536 50.679 45.983 51.131 46.536 51.131 L 53.292 51.131 C 53.845 51.131 54.292 50.679 54.292 50.121 L 54.292 43.77 C 54.292 43.211 53.845 42.76 53.292 42.76 Z M 52.292 49.111 L 47.536 49.111 L 47.536 44.78 L 52.292 44.78 L 52.292 49.111 Z M 65.237 42.76 L 58.481 42.76 C 57.929 42.76 57.481 43.211 57.481 43.77 L 57.481 50.121 C 57.481 50.679 57.929 51.131 58.481 51.131 L 65.237 51.131 C 65.79 51.131 66.237 50.679 66.237 50.121 L 66.237 43.77 C 66.237 43.211 65.79 42.76 65.237 42.76 Z M 64.237 49.111 L 59.481 49.111 L 59.481 44.78 L 64.237 44.78 L 64.237 49.111 Z M 49.914 26.198 C 46.154 26.198 43.096 29.287 43.096 33.084 C 43.096 36.881 46.154 39.969 49.914 39.969 C 53.674 39.969 56.732 36.881 56.732 33.084 C 56.732 29.287 53.674 26.198 49.914 26.198 Z M 49.914 37.95 C 47.257 37.95 45.096 35.767 45.096 33.084 C 45.096 30.4 47.257 28.219 49.914 28.219 C 52.571 28.219 54.732 30.4 54.732 33.084 C 54.732 35.767 52.571 37.95 49.914 37.95 Z M 49.914 28.891 C 47.624 28.891 45.762 30.771 45.762 33.084 C 45.762 35.396 47.624 37.277 49.914 37.277 C 52.204 37.277 54.066 35.396 54.066 33.084 C 54.066 30.771 52.204 28.891 49.914 28.891 Z M 52.413 33.74 L 52.684 33.74 C 52.437 34.801 51.613 35.632 50.564 35.883 L 50.564 35.609 C 50.564 35.246 50.273 34.952 49.914 34.952 C 49.555 34.952 49.264 35.246 49.264 35.609 L 49.264 35.883 C 48.214 35.632 47.39 34.801 47.143 33.74 L 47.414 33.74 C 47.773 33.74 48.064 33.447 48.064 33.084 C 48.064 32.722 47.773 32.428 47.414 32.428 L 47.143 32.428 C 47.39 31.368 48.214 30.535 49.264 30.285 L 49.264 30.56 C 49.264 30.922 49.555 31.215 49.914 31.215 C 50.273 31.215 50.564 30.922 50.564 30.56 L 50.564 30.285 C 51.613 30.535 52.437 31.368 52.684 32.428 L 52.413 32.428 C 52.055 32.428 51.764 32.722 51.764 33.084 C 51.764 33.447 52.055 33.74 52.413 33.74 Z M 100.668 64.693 L 99.064 51.02 C 99.061 50.993 99.057 50.966 99.051 50.937 C 98.47 48.05 96.44 45.641 93.755 44.649 C 93.118 44.413 92.417 44.456 91.782 44.77 C 91.703 44.808 91.613 44.845 91.523 44.881 L 91.523 43.581 C 92.954 42.556 94.114 40.997 94.87 39.231 C 94.969 39.253 95.065 39.284 95.167 39.295 C 95.277 39.308 95.387 39.313 95.496 39.313 C 96.899 39.313 98.139 38.314 98.392 36.919 C 98.525 36.186 98.36 35.457 97.928 34.866 C 98.105 34.28 98.207 33.632 98.207 32.888 L 98.207 31.394 C 98.207 26.495 93.974 22.508 88.77 22.508 L 86.895 22.508 C 81.692 22.508 77.46 26.495 77.46 31.394 L 77.46 32.888 C 77.46 33.327 77.494 33.733 77.555 34.115 L 70.705 34.115 C 70.431 33.576 70.03 33.107 69.522 32.763 L 69.522 32.764 L 51.812 20.755 C 51.53 20.563 51.227 20.42 50.914 20.322 L 50.914 16.998 L 57.056 16.998 C 58.158 16.998 59.056 16.092 59.056 14.978 L 59.056 11.474 C 59.056 10.361 58.158 9.455 57.056 9.455 L 49.914 9.455 C 49.362 9.455 48.914 9.907 48.914 10.465 L 48.914 20.322 C 48.601 20.419 48.298 20.563 48.015 20.755 L 30.306 32.763 C 29.798 33.107 29.397 33.576 29.123 34.115 L 24.735 34.115 L 24.763 31.394 C 24.763 26.494 20.529 22.508 15.326 22.508 L 13.452 22.508 C 8.249 22.508 4.016 26.494 4.016 31.404 L 4.054 35.271 C 3.808 35.777 3.725 36.346 3.83 36.919 C 3.877 37.179 3.968 37.418 4.078 37.647 L 4.102 40.033 C 4.102 41.436 5.233 42.577 6.622 42.577 L 9.543 42.577 C 9.725 42.766 9.913 42.943 10.108 43.114 L 10.108 44.645 C 9.566 44.462 8.996 44.454 8.468 44.649 C 5.78 45.642 3.749 48.052 3.157 51.023 L 1.554 64.693 C 1.52 64.978 1.609 65.267 1.799 65.484 C 1.832 65.519 1.878 65.537 1.916 65.57 L 1.885 65.829 C 1.788 66.641 2.041 67.458 2.579 68.069 C 3.116 68.68 3.887 69.029 4.696 69.029 L 5.623 69.029 L 5.451 75.129 C 5.443 75.401 5.545 75.666 5.733 75.862 C 5.921 76.057 6.18 76.168 6.45 76.168 L 7.007 76.168 L 7.007 86.766 C 5.032 86.998 3.489 88.677 3.489 90.731 C 3.489 91.457 4.074 92.048 4.793 92.048 L 12.717 92.048 C 13.436 92.048 14.021 91.457 14.021 90.731 L 14.021 89.408 C 14.021 88.784 13.801 88.216 13.447 87.76 C 13.455 87.658 13.469 87.56 13.469 87.455 L 13.744 76.168 L 15.034 76.168 L 15.309 87.431 C 15.309 87.544 15.322 87.65 15.332 87.759 C 14.977 88.216 14.757 88.784 14.757 89.408 L 14.757 90.731 C 14.757 91.457 15.342 92.048 16.06 92.048 L 23.985 92.048 C 24.704 92.048 25.288 91.457 25.288 90.731 C 25.288 88.677 23.746 86.998 21.771 86.766 L 21.771 76.168 L 22.328 76.168 C 22.598 76.168 22.856 76.057 23.045 75.862 C 23.233 75.666 23.335 75.401 23.327 75.129 L 23.155 69.029 L 24.081 69.029 C 24.314 69.029 24.541 68.994 24.763 68.936 L 77.458 68.936 C 77.68 68.994 77.908 69.029 78.141 69.029 L 79.325 69.029 L 79.325 86.491 C 79.325 86.676 79.346 86.855 79.38 87.029 C 77.945 87.635 76.934 89.066 76.934 90.731 C 76.934 91.457 77.518 92.048 78.237 92.048 L 86.161 92.048 C 86.88 92.048 87.465 91.457 87.465 90.731 L 87.465 89.408 C 87.465 88.709 87.193 88.078 86.759 87.6 C 86.903 87.272 86.991 86.91 86.991 86.523 L 87.451 72.221 C 87.456 72.087 87.61 71.945 87.833 71.945 C 88.057 71.945 88.211 72.087 88.216 72.221 L 88.674 86.491 C 88.674 86.889 88.764 87.262 88.91 87.596 C 88.474 88.074 88.201 88.708 88.201 89.408 L 88.201 90.731 C 88.201 91.457 88.786 92.048 89.505 92.048 L 97.429 92.048 C 98.147 92.048 98.732 91.457 98.732 90.731 C 98.732 89.066 97.721 87.635 96.286 87.029 C 96.32 86.855 96.341 86.676 96.341 86.491 L 96.339 69.029 L 97.525 69.029 C 98.335 69.029 99.107 68.679 99.644 68.068 C 100.182 67.457 100.434 66.64 100.338 65.829 L 100.307 65.569 C 100.343 65.536 100.389 65.519 100.422 65.484 C 100.612 65.267 100.701 64.978 100.668 64.693 Z M 50.914 11.474 L 57.056 11.474 L 57.057 14.978 L 50.914 14.978 L 50.914 11.474 Z M 22.981 36.554 C 22.907 36.963 22.511 37.263 22.075 37.277 C 22.195 36.783 22.279 36.285 22.332 35.788 C 22.343 35.789 22.352 35.785 22.363 35.786 C 22.579 35.808 22.76 35.907 22.874 36.062 C 22.946 36.16 23.023 36.325 22.981 36.554 Z M 22.683 39.236 L 22.675 40.033 C 22.675 40.322 22.442 40.558 22.156 40.558 L 20.755 40.558 C 21.003 40.132 21.229 39.689 21.426 39.231 C 21.525 39.253 21.621 39.284 21.723 39.295 C 21.833 39.308 21.942 39.313 22.051 39.313 C 22.267 39.313 22.478 39.282 22.683 39.236 Z M 13.452 24.528 L 15.326 24.528 C 19.427 24.528 22.763 27.608 22.763 31.383 L 22.738 33.811 C 22.685 33.802 22.635 33.783 22.58 33.777 C 22.504 33.768 22.429 33.776 22.353 33.774 C 22.313 33.324 22.252 32.869 22.149 32.399 C 22.048 31.944 21.651 31.618 21.189 31.609 C 18.954 31.573 16.844 30.59 15.546 28.979 C 14.976 28.274 13.803 28.273 13.232 28.981 C 11.934 30.59 9.824 31.573 7.589 31.609 C 7.126 31.618 6.729 31.944 6.629 32.399 C 6.525 32.869 6.465 33.325 6.425 33.775 C 6.348 33.777 6.274 33.768 6.197 33.777 C 6.143 33.783 6.093 33.802 6.04 33.811 L 6.016 31.394 C 6.016 27.608 9.351 24.528 13.452 24.528 Z M 5.904 36.062 C 6.018 35.907 6.2 35.808 6.415 35.786 C 6.425 35.785 6.435 35.785 6.445 35.784 C 6.499 36.282 6.583 36.782 6.702 37.277 C 6.268 37.265 5.871 36.963 5.797 36.554 C 5.755 36.324 5.832 36.16 5.904 36.062 Z M 6.622 40.558 C 6.335 40.558 6.102 40.322 6.102 40.023 L 6.095 39.237 C 6.3 39.282 6.51 39.313 6.727 39.313 C 6.835 39.313 6.945 39.308 7.055 39.295 C 7.157 39.284 7.253 39.253 7.352 39.231 C 7.548 39.689 7.775 40.132 8.023 40.558 L 6.622 40.558 Z M 8.375 34.642 C 8.375 34.293 8.399 33.941 8.448 33.583 C 10.771 33.356 12.878 32.339 14.389 30.71 C 15.9 32.339 18.007 33.356 20.33 33.583 C 20.378 33.941 20.402 34.293 20.402 34.642 C 20.402 38.847 17.48 42.821 14.389 42.821 C 11.298 42.821 8.375 38.847 8.375 34.642 Z M 19.217 46.584 C 19.299 46.543 19.459 46.487 19.623 46.546 C 19.824 46.619 20.015 46.713 20.205 46.807 C 19.955 47.087 19.272 47.539 18.111 47.67 C 17.556 47.734 16.892 47.589 16.288 47.355 C 17.448 47.217 18.469 46.953 19.217 46.584 Z M 16.079 44.59 L 16.079 45.346 C 15.545 45.411 14.973 45.447 14.389 45.447 C 13.805 45.447 13.233 45.411 12.699 45.346 L 12.699 44.59 C 13.241 44.751 13.805 44.841 14.389 44.841 C 14.973 44.841 15.537 44.751 16.079 44.59 Z M 9.155 46.546 C 9.319 46.487 9.48 46.544 9.561 46.585 C 10.309 46.953 11.329 47.216 12.488 47.355 C 11.885 47.588 11.222 47.732 10.667 47.671 C 9.506 47.54 8.823 47.087 8.573 46.807 C 8.763 46.713 8.954 46.619 9.155 46.546 Z M 5.68 67.011 L 4.696 67.011 C 4.455 67.011 4.234 66.91 4.074 66.728 C 3.914 66.546 3.842 66.312 3.87 66.071 L 3.9 65.822 L 5.714 65.822 L 5.68 67.011 Z M 12.021 90.028 L 5.616 90.028 C 5.898 89.275 6.619 88.739 7.461 88.739 L 11.359 88.739 C 11.724 88.739 12.021 89.04 12.021 89.408 L 12.021 90.028 Z M 9.006 76.168 L 11.743 76.168 L 11.486 86.733 C 11.443 86.731 11.403 86.72 11.359 86.72 L 9.007 86.72 L 9.006 76.168 Z M 7.479 74.148 L 7.815 62.265 L 20.963 62.265 L 21.299 74.148 L 7.479 74.148 Z M 19.771 76.168 L 19.771 86.72 L 17.418 86.72 C 17.375 86.72 17.335 86.731 17.292 86.733 L 17.034 76.168 L 19.771 76.168 Z M 23.162 90.028 L 16.757 90.028 L 16.757 89.408 C 16.757 89.04 17.054 88.739 17.418 88.739 L 21.316 88.739 C 22.159 88.739 22.88 89.275 23.162 90.028 Z M 24.704 66.727 C 24.544 66.91 24.323 67.011 24.081 67.011 L 23.097 67.011 L 23.064 65.822 L 24.878 65.822 L 24.908 66.071 C 24.936 66.312 24.864 66.546 24.704 66.727 Z M 23.007 63.801 L 22.757 54.984 C 22.742 54.427 22.26 54.006 21.729 54.003 C 21.177 54.02 20.743 54.485 20.758 55.043 L 20.905 60.246 L 7.873 60.246 L 8.02 55.043 C 8.036 54.485 7.601 54.02 7.049 54.003 C 6.509 54.007 6.037 54.427 6.021 54.984 L 5.771 63.801 L 3.672 63.801 L 5.13 51.342 C 5.392 50.038 6.044 48.872 6.949 47.973 C 7.604 48.844 8.867 49.501 10.447 49.678 C 10.607 49.696 10.77 49.705 10.934 49.705 C 12.141 49.705 13.437 49.245 14.389 48.66 C 15.47 49.324 16.994 49.829 18.331 49.677 C 19.911 49.499 21.174 48.844 21.828 47.973 C 22.723 48.861 23.372 50.013 23.639 51.299 L 25.105 63.801 L 23.007 63.801 Z M 28.713 66.918 L 26.805 66.918 C 26.9 66.567 26.937 66.199 26.893 65.829 L 26.862 65.57 C 26.899 65.537 26.946 65.519 26.978 65.484 C 27.168 65.267 27.258 64.978 27.224 64.693 L 27.063 63.319 L 28.713 63.319 L 28.713 66.918 Z M 28.713 61.703 L 26.873 61.703 L 26.418 57.827 L 28.713 57.827 L 28.713 61.703 Z M 28.713 56.212 L 26.229 56.212 L 25.774 52.334 L 28.713 52.334 L 28.713 56.212 Z M 28.713 50.719 L 25.548 50.719 C 25.212 49.249 24.5 47.92 23.518 46.842 L 28.713 46.842 L 28.713 50.719 Z M 28.713 45.227 L 21.513 45.227 C 21.128 45.006 20.731 44.805 20.31 44.649 C 19.673 44.413 18.972 44.456 18.338 44.77 C 18.259 44.808 18.169 44.845 18.079 44.881 L 18.079 43.581 C 18.488 43.288 18.873 42.95 19.235 42.577 L 22.156 42.577 C 23.067 42.577 23.86 42.082 24.302 41.35 L 28.713 41.35 L 28.713 45.227 Z M 28.713 39.734 L 24.678 39.734 L 24.699 37.648 C 24.81 37.419 24.901 37.179 24.948 36.919 C 24.997 36.655 24.993 36.393 24.965 36.135 L 28.713 36.135 L 28.713 39.734 Z M 48.914 66.918 L 44.047 66.918 L 44.047 59.983 L 48.914 59.983 L 48.914 66.918 Z M 55.78 66.918 L 50.914 66.918 L 50.914 59.983 L 55.78 59.983 L 55.78 66.918 Z M 56.275 57.963 L 43.553 57.963 L 43.553 56.171 L 56.275 56.171 L 56.275 57.963 Z M 69.115 66.918 L 57.78 66.918 L 57.78 59.826 C 58.071 59.649 58.275 59.342 58.275 58.974 L 58.275 55.16 C 58.275 54.602 57.828 54.151 57.275 54.151 L 42.553 54.151 C 42 54.151 41.553 54.602 41.553 55.16 L 41.553 58.974 C 41.553 59.341 41.757 59.648 42.047 59.825 L 42.047 66.918 L 30.713 66.918 L 30.713 35.831 C 30.713 35.26 30.977 34.739 31.421 34.44 L 49.13 22.431 C 49.615 22.104 50.214 22.104 50.697 22.431 L 68.407 34.44 C 68.85 34.739 69.115 35.26 69.115 35.831 L 69.115 66.918 Z M 87.833 42.821 C 84.742 42.821 81.819 38.847 81.819 34.642 C 81.819 34.294 81.844 33.942 81.892 33.583 C 84.215 33.356 86.322 32.339 87.833 30.71 C 89.344 32.339 91.451 33.356 93.774 33.583 C 93.822 33.942 93.847 34.294 93.847 34.642 C 93.847 38.847 90.924 42.821 87.833 42.821 Z M 89.523 44.59 L 89.523 45.346 C 88.989 45.411 88.417 45.447 87.833 45.447 C 87.249 45.447 86.677 45.411 86.143 45.346 L 86.143 44.59 C 86.685 44.751 87.249 44.841 87.833 44.841 C 88.417 44.841 88.982 44.751 89.523 44.59 Z M 96.426 36.554 C 96.351 36.963 95.951 37.262 95.52 37.277 C 95.639 36.782 95.723 36.282 95.777 35.784 C 95.787 35.785 95.797 35.785 95.807 35.786 C 96.022 35.808 96.204 35.907 96.318 36.062 C 96.39 36.16 96.468 36.325 96.426 36.554 Z M 79.46 31.394 C 79.46 27.608 82.796 24.528 86.895 24.528 L 88.77 24.528 C 92.871 24.528 96.207 27.608 96.207 31.394 L 96.207 32.888 C 96.207 33.224 96.176 33.521 96.13 33.799 C 96.094 33.794 96.061 33.781 96.025 33.777 C 95.948 33.768 95.874 33.777 95.797 33.774 C 95.757 33.325 95.697 32.87 95.594 32.401 C 95.493 31.944 95.096 31.618 94.634 31.609 C 92.397 31.573 90.288 30.59 88.99 28.981 C 88.42 28.273 87.246 28.272 86.676 28.981 C 85.378 30.59 83.268 31.573 81.032 31.609 C 80.57 31.618 80.173 31.944 80.072 32.401 C 79.969 32.871 79.908 33.326 79.868 33.775 C 79.792 33.777 79.718 33.768 79.641 33.777 C 79.605 33.781 79.572 33.794 79.537 33.8 C 79.491 33.521 79.46 33.224 79.46 32.888 L 79.46 31.394 Z M 79.349 36.062 C 79.462 35.907 79.643 35.808 79.859 35.786 C 79.869 35.785 79.879 35.785 79.889 35.784 C 79.942 36.282 80.026 36.782 80.146 37.277 C 79.707 37.263 79.315 36.963 79.241 36.554 C 79.199 36.324 79.276 36.159 79.349 36.062 Z M 71.115 36.135 L 77.258 36.135 C 77.23 36.393 77.226 36.655 77.274 36.919 C 77.523 38.294 78.793 39.312 80.184 39.312 C 80.288 39.312 80.393 39.307 80.499 39.295 C 80.601 39.284 80.697 39.253 80.796 39.231 C 80.869 39.402 80.949 39.568 81.029 39.734 L 71.115 39.734 L 71.115 36.135 Z M 71.115 41.35 L 81.973 41.35 C 82.591 42.23 83.322 42.994 84.143 43.582 L 84.143 44.881 C 84.053 44.846 83.962 44.809 83.883 44.77 C 83.248 44.456 82.549 44.413 81.911 44.649 C 81.491 44.805 81.094 45.006 80.71 45.227 L 71.115 45.227 L 71.115 41.35 Z M 71.115 66.918 L 71.115 63.319 L 75.159 63.319 L 74.998 64.693 C 74.965 64.978 75.054 65.267 75.244 65.484 C 75.276 65.519 75.322 65.536 75.359 65.569 L 75.328 65.83 C 75.285 66.2 75.322 66.567 75.417 66.918 L 71.115 66.918 Z M 75.349 61.703 L 71.115 61.703 L 71.115 57.827 L 75.803 57.827 L 75.349 61.703 Z M 75.993 56.212 L 71.115 56.212 L 71.115 52.334 L 76.448 52.334 L 75.993 56.212 Z M 71.115 50.719 L 71.115 46.842 L 78.71 46.842 C 77.74 47.912 77.032 49.237 76.682 50.719 L 71.115 50.719 Z M 78.141 67.011 C 77.899 67.011 77.679 66.91 77.518 66.728 C 77.358 66.546 77.286 66.312 77.314 66.071 L 77.344 65.822 L 79.464 65.822 L 79.388 67.011 L 78.141 67.011 Z M 85.465 90.028 L 79.06 90.028 C 79.313 89.355 79.923 88.879 80.651 88.78 C 80.907 88.903 81.187 88.972 81.481 88.972 L 84.836 88.972 C 84.979 88.972 85.118 88.955 85.253 88.923 C 85.382 89.046 85.465 89.217 85.465 89.408 L 85.465 90.028 Z M 87.833 69.924 C 86.538 69.924 85.493 70.905 85.453 72.157 L 84.992 86.491 C 84.992 86.766 84.867 86.932 84.836 86.952 L 81.503 86.956 C 81.45 86.932 81.325 86.766 81.325 86.491 L 81.323 68.071 L 81.545 64.6 L 94.122 64.6 L 94.341 68.006 L 94.341 86.491 C 94.341 86.766 94.216 86.932 94.184 86.952 L 90.851 86.956 C 90.799 86.932 90.674 86.766 90.673 86.458 L 90.214 72.157 C 90.174 70.905 89.128 69.924 87.833 69.924 Z M 96.605 90.028 L 90.201 90.028 L 90.201 89.408 C 90.201 89.217 90.284 89.046 90.413 88.923 C 90.548 88.955 90.687 88.972 90.83 88.972 L 94.184 88.972 C 94.479 88.972 94.759 88.903 95.015 88.78 C 95.743 88.879 96.353 89.355 96.605 90.028 Z M 98.148 66.727 C 97.988 66.91 97.767 67.011 97.525 67.011 L 96.279 67.011 L 96.204 65.822 L 98.322 65.822 L 98.351 66.071 C 98.381 66.312 98.309 66.546 98.148 66.727 Z M 96.731 63.801 C 96.751 63.71 96.776 63.618 96.769 63.524 L 96.2 54.947 C 96.163 54.39 95.682 53.985 95.136 54.005 C 94.584 54.043 94.167 54.524 94.204 55.081 L 94.702 62.581 L 80.964 62.581 L 81.463 55.082 C 81.5 54.524 81.083 54.043 80.532 54.005 C 79.964 53.982 79.505 54.39 79.467 54.945 L 78.896 63.523 C 78.89 63.618 78.915 63.709 78.935 63.801 L 77.116 63.801 L 78.575 51.342 C 79.017 49.137 80.559 47.3 82.599 46.546 C 82.763 46.485 82.925 46.544 83.005 46.585 C 84.142 47.145 85.901 47.467 87.833 47.467 C 89.765 47.467 91.524 47.145 92.66 46.585 C 92.742 46.544 92.902 46.485 93.067 46.546 C 95.094 47.294 96.629 49.113 97.083 51.301 L 98.55 63.801 L 96.731 63.801 Z M 90.164 39.146 C 90.164 40.138 89.141 40.916 87.833 40.916 C 86.525 40.916 85.502 40.138 85.502 39.146 C 85.502 38.699 85.86 38.339 86.302 38.339 C 86.724 38.339 87.068 38.668 87.1 39.086 C 87.171 39.157 87.424 39.301 87.833 39.301 C 88.283 39.301 88.543 39.126 88.582 39.067 C 88.582 38.62 88.932 38.3 89.373 38.3 C 89.815 38.3 90.164 38.699 90.164 39.146 Z M 85.571 35.752 C 85.571 36.352 85.203 36.806 84.716 36.806 C 84.229 36.806 83.861 36.352 83.861 35.752 C 83.861 35.152 84.229 34.698 84.716 34.698 C 85.203 34.698 85.571 35.152 85.571 35.752 Z M 91.805 35.752 C 91.805 36.352 91.437 36.806 90.95 36.806 C 90.463 36.806 90.096 36.352 90.096 35.752 C 90.096 35.152 90.463 34.698 90.95 34.698 C 91.437 34.698 91.805 35.152 91.805 35.752 Z M 89.149 50.131 C 89.149 50.864 88.56 51.46 87.833 51.46 C 87.106 51.46 86.517 50.864 86.517 50.131 C 86.517 49.396 87.106 48.801 87.833 48.801 C 88.56 48.801 89.149 49.396 89.149 50.131 Z M 89.149 53.93 C 89.149 54.665 88.56 55.259 87.833 55.259 C 87.106 55.259 86.517 54.665 86.517 53.93 C 86.517 53.196 87.106 52.601 87.833 52.601 C 88.56 52.601 89.149 53.196 89.149 53.93 Z M 15.705 52.03 C 15.705 52.765 15.116 53.36 14.389 53.36 C 13.662 53.36 13.073 52.765 13.073 52.03 C 13.073 51.295 13.662 50.701 14.389 50.701 C 15.116 50.701 15.705 51.295 15.705 52.03 Z M 15.705 55.831 C 15.705 56.564 15.116 57.159 14.389 57.159 C 13.662 57.159 13.073 56.564 13.073 55.831 C 13.073 55.096 13.662 54.502 14.389 54.502 C 15.116 54.502 15.705 55.096 15.705 55.831 Z M 12.058 39.146 C 12.058 38.699 12.416 38.338 12.858 38.338 C 13.279 38.338 13.624 38.668 13.656 39.085 C 13.727 39.157 13.979 39.301 14.389 39.301 C 14.839 39.301 15.099 39.126 15.138 39.067 C 15.138 38.62 15.487 38.3 15.929 38.3 C 16.371 38.3 16.72 38.699 16.72 39.146 C 16.72 40.138 15.696 40.916 14.389 40.916 C 13.081 40.916 12.058 40.138 12.058 39.146 Z M 11.272 36.806 C 10.785 36.806 10.417 36.352 10.417 35.752 C 10.417 35.152 10.785 34.698 11.272 34.698 C 11.759 34.698 12.126 35.152 12.126 35.752 C 12.126 36.352 11.759 36.806 11.272 36.806 Z M 16.652 35.752 C 16.652 35.152 17.019 34.698 17.506 34.698 C 17.993 34.698 18.361 35.152 18.361 35.752 C 18.361 36.352 17.993 36.806 17.506 36.806 C 17.019 36.806 16.652 36.352 16.652 35.752 Z"/>
</svg>