<?xml version="1.0" encoding="utf-8"?>
<svg version="1.1" x="0px" y="0px" viewBox="0 0 100 125" style="enable-background:new 0 0 100 100;" xmlns="http://www.w3.org/2000/svg">
  <defs/>
  <path d="M 16.947 28.789 C 17.434 28.789 17.913 28.708 18.381 28.548 C 19.375 29.365 20.603 29.808 21.903 29.808 C 23.204 29.808 24.431 29.365 25.426 28.548 C 25.894 28.708 26.374 28.789 26.86 28.789 C 29.253 28.789 31.201 26.932 31.39 24.587 C 32.128 24.382 32.823 24.043 33.426 23.548 C 33.894 23.708 34.374 23.789 34.86 23.789 C 37.378 23.789 39.427 21.74 39.427 19.222 C 39.427 16.704 37.378 14.655 34.86 14.655 C 34.374 14.655 33.894 14.736 33.426 14.897 C 32.431 14.079 31.204 13.636 29.903 13.636 C 28.604 13.636 27.376 14.079 26.381 14.897 C 25.913 14.736 25.433 14.655 24.947 14.655 C 22.554 14.655 20.607 16.512 20.417 18.857 C 19.679 19.062 18.984 19.401 18.381 19.897 C 17.913 19.737 17.434 19.656 16.947 19.656 C 14.429 19.656 12.38 21.704 12.38 24.222 C 12.38 26.74 14.429 28.789 16.947 28.789 Z M 24.947 16.655 C 25.342 16.655 25.737 16.757 26.123 16.958 C 26.52 17.163 27.003 17.083 27.31 16.76 C 28.687 15.31 31.12 15.31 32.497 16.76 C 32.804 17.083 33.289 17.162 33.685 16.958 C 34.069 16.757 34.465 16.655 34.86 16.655 C 36.275 16.655 37.427 17.807 37.427 19.222 C 37.427 20.638 36.275 21.789 34.86 21.789 C 34.464 21.789 34.069 21.688 33.685 21.487 C 33.29 21.281 32.805 21.362 32.497 21.685 C 31.121 23.134 28.686 23.134 27.31 21.685 C 27.116 21.481 26.853 21.374 26.585 21.374 C 26.427 21.374 26.269 21.411 26.123 21.487 C 25.738 21.688 25.342 21.789 24.947 21.789 C 23.532 21.789 22.38 20.638 22.38 19.222 C 22.38 17.807 23.532 16.655 24.947 16.655 Z M 16.947 21.656 C 17.342 21.656 17.738 21.757 18.123 21.958 C 18.52 22.164 19.004 22.083 19.31 21.76 C 19.704 21.345 20.188 21.063 20.705 20.886 C 21.372 22.582 23.017 23.789 24.947 23.789 C 25.434 23.789 25.914 23.708 26.381 23.548 C 27.237 24.251 28.269 24.657 29.367 24.763 C 29.118 25.919 28.09 26.789 26.86 26.789 C 26.464 26.789 26.069 26.688 25.685 26.487 C 25.29 26.281 24.805 26.362 24.497 26.685 C 23.121 28.134 20.686 28.134 19.31 26.685 C 19.117 26.481 18.853 26.374 18.585 26.374 C 18.427 26.374 18.269 26.411 18.123 26.487 C 17.738 26.688 17.342 26.789 16.947 26.789 C 15.532 26.789 14.38 25.638 14.38 24.222 C 14.38 22.807 15.532 21.656 16.947 21.656 Z M 65.947 28.789 C 66.434 28.789 66.914 28.708 67.381 28.548 C 68.376 29.365 69.604 29.808 70.904 29.808 C 72.204 29.808 73.432 29.365 74.427 28.548 C 74.894 28.708 75.374 28.789 75.86 28.789 C 78.378 28.789 80.427 26.74 80.427 24.222 C 80.427 21.704 78.378 19.656 75.86 19.656 C 75.374 19.656 74.894 19.737 74.427 19.897 C 73.432 19.079 72.204 18.636 70.904 18.636 C 69.604 18.636 68.376 19.079 67.381 19.897 C 66.914 19.737 66.434 19.656 65.947 19.656 C 63.43 19.656 61.381 21.704 61.381 24.222 C 61.381 26.74 63.43 28.789 65.947 28.789 Z M 65.947 21.656 C 66.343 21.656 66.738 21.757 67.122 21.958 C 67.518 22.163 68.003 22.083 68.31 21.76 C 69.687 20.311 72.12 20.309 73.498 21.76 C 73.805 22.083 74.29 22.164 74.686 21.958 C 75.069 21.757 75.465 21.656 75.86 21.656 C 77.275 21.656 78.427 22.807 78.427 24.222 C 78.427 25.638 77.275 26.789 75.86 26.789 C 75.465 26.789 75.069 26.688 74.686 26.487 C 74.289 26.281 73.804 26.361 73.498 26.685 C 72.121 28.134 69.687 28.134 68.31 26.685 C 68.116 26.481 67.853 26.374 67.585 26.374 C 67.428 26.374 67.269 26.411 67.122 26.487 C 66.738 26.688 66.343 26.789 65.947 26.789 C 64.532 26.789 63.381 25.638 63.381 24.222 C 63.381 22.807 64.532 21.656 65.947 21.656 Z M 40.396 53.948 L 33.64 53.948 C 33.088 53.948 32.64 54.395 32.64 54.948 L 32.64 61.237 C 32.64 61.789 33.088 62.237 33.64 62.237 L 40.396 62.237 C 40.948 62.237 41.396 61.789 41.396 61.237 L 41.396 54.948 C 41.396 54.395 40.948 53.948 40.396 53.948 Z M 39.396 60.237 L 34.64 60.237 L 34.64 55.948 L 39.396 55.948 L 39.396 60.237 Z M 52.342 53.948 L 45.586 53.948 C 45.033 53.948 44.586 54.395 44.586 54.948 L 44.586 61.237 C 44.586 61.789 45.033 62.237 45.586 62.237 L 52.342 62.237 C 52.895 62.237 53.342 61.789 53.342 61.237 L 53.342 54.948 C 53.342 54.395 52.895 53.948 52.342 53.948 Z M 51.342 60.237 L 46.586 60.237 L 46.586 55.948 L 51.342 55.948 L 51.342 60.237 L 51.342 60.237 Z M 64.287 53.948 L 57.531 53.948 C 56.979 53.948 56.531 54.395 56.531 54.948 L 56.531 61.237 C 56.531 61.789 56.979 62.237 57.531 62.237 L 64.287 62.237 C 64.84 62.237 65.287 61.789 65.287 61.237 L 65.287 54.948 C 65.287 54.395 64.84 53.948 64.287 53.948 Z M 63.287 60.237 L 58.531 60.237 L 58.531 55.948 L 63.287 55.948 L 63.287 60.237 Z M 48.964 37.549 C 45.204 37.549 42.146 40.607 42.146 44.367 C 42.146 48.127 45.204 51.185 48.964 51.185 C 52.724 51.185 55.782 48.127 55.782 44.367 C 55.782 40.607 52.724 37.549 48.964 37.549 Z M 48.964 49.185 C 46.307 49.185 44.146 47.024 44.146 44.367 C 44.146 41.71 46.307 39.549 48.964 39.549 C 51.621 39.549 53.782 41.71 53.782 44.367 C 53.782 47.024 51.621 49.185 48.964 49.185 Z M 48.964 40.215 C 46.674 40.215 44.812 42.077 44.812 44.367 C 44.812 46.656 46.674 48.519 48.964 48.519 C 51.254 48.519 53.116 46.656 53.116 44.367 C 53.116 42.077 51.254 40.215 48.964 40.215 Z M 51.463 45.017 L 51.734 45.017 C 51.487 46.067 50.663 46.891 49.614 47.138 L 49.614 46.867 C 49.614 46.508 49.323 46.217 48.964 46.217 C 48.605 46.217 48.314 46.508 48.314 46.867 L 48.314 47.138 C 47.264 46.891 46.44 46.067 46.193 45.017 L 46.464 45.017 C 46.823 45.017 47.114 44.726 47.114 44.367 C 47.114 44.008 46.823 43.717 46.464 43.717 L 46.193 43.717 C 46.44 42.667 47.264 41.843 48.314 41.596 L 48.314 41.867 C 48.314 42.226 48.605 42.517 48.964 42.517 C 49.323 42.517 49.614 42.226 49.614 41.867 L 49.614 41.596 C 50.663 41.843 51.487 42.667 51.734 43.717 L 51.463 43.717 C 51.105 43.717 50.814 44.008 50.814 44.367 C 50.814 44.726 51.105 45.017 51.463 45.017 Z M 99.718 75.666 L 98.114 62.127 C 98.111 62.1 98.107 62.073 98.101 62.045 C 97.52 59.187 95.49 56.801 92.805 55.819 C 92.168 55.585 91.467 55.628 90.832 55.938 C 90.753 55.976 90.663 56.012 90.573 56.048 L 90.573 54.762 C 92.004 53.746 93.164 52.202 93.92 50.454 C 94.019 50.476 94.115 50.506 94.217 50.517 C 94.327 50.53 94.437 50.535 94.546 50.535 C 95.949 50.535 97.189 49.546 97.442 48.165 C 97.575 47.439 97.41 46.717 96.978 46.132 C 97.155 45.552 97.257 44.91 97.257 44.173 L 97.257 42.694 C 97.257 37.843 93.024 33.895 87.82 33.895 L 85.945 33.895 C 80.742 33.895 76.51 37.843 76.51 42.694 L 76.51 44.173 C 76.51 44.607 76.544 45.01 76.605 45.388 L 69.755 45.388 C 69.481 44.854 69.08 44.39 68.572 44.049 L 68.572 44.05 L 50.862 32.159 C 50.58 31.969 50.277 31.828 49.964 31.731 L 49.964 28.439 L 56.106 28.439 C 57.208 28.439 58.106 27.542 58.106 26.439 L 58.106 22.97 C 58.106 21.867 57.208 20.97 56.106 20.97 L 48.964 20.97 C 48.412 20.97 47.964 21.418 47.964 21.97 L 47.964 31.731 C 47.651 31.827 47.348 31.969 47.065 32.159 L 29.356 44.049 C 28.848 44.39 28.447 44.854 28.173 45.388 L 23.785 45.388 L 23.813 42.694 C 23.813 37.842 19.579 33.895 14.376 33.895 L 12.502 33.895 C 7.299 33.895 3.066 37.842 3.066 42.704 L 3.104 46.533 C 2.858 47.033 2.775 47.597 2.88 48.165 C 2.927 48.422 3.018 48.659 3.128 48.885 L 3.152 51.248 C 3.152 52.637 4.283 53.767 5.672 53.767 L 8.593 53.767 C 8.775 53.954 8.963 54.13 9.158 54.298 L 9.158 55.814 C 8.616 55.633 8.046 55.626 7.518 55.819 C 4.83 56.802 2.799 59.189 2.207 62.13 L 0.604 75.666 C 0.57 75.949 0.659 76.234 0.849 76.448 C 0.882 76.484 0.928 76.502 0.966 76.533 L 0.935 76.791 C 0.838 77.595 1.091 78.403 1.629 79.008 C 2.166 79.614 2.937 79.96 3.746 79.96 L 4.673 79.96 L 4.501 85.999 C 4.493 86.269 4.595 86.531 4.783 86.725 C 4.971 86.918 5.23 87.028 5.5 87.028 L 6.057 87.028 L 6.057 97.522 C 4.082 97.751 2.539 99.414 2.539 101.448 C 2.539 102.167 3.124 102.752 3.843 102.752 L 11.767 102.752 C 12.486 102.752 13.071 102.167 13.071 101.448 L 13.071 100.138 C 13.071 99.52 12.851 98.958 12.497 98.506 C 12.505 98.406 12.519 98.308 12.519 98.204 L 12.794 87.028 L 14.084 87.028 L 14.359 98.18 C 14.359 98.292 14.372 98.398 14.382 98.505 C 14.027 98.958 13.807 99.52 13.807 100.138 L 13.807 101.448 C 13.807 102.167 14.392 102.752 15.11 102.752 L 23.035 102.752 C 23.754 102.752 24.338 102.167 24.338 101.448 C 24.338 99.414 22.796 97.751 20.821 97.522 L 20.821 87.028 L 21.378 87.028 C 21.648 87.028 21.906 86.918 22.095 86.725 C 22.283 86.531 22.385 86.269 22.377 85.999 L 22.205 79.96 L 23.131 79.96 C 23.364 79.96 23.591 79.924 23.813 79.868 L 76.508 79.868 C 76.73 79.924 76.958 79.96 77.191 79.96 L 78.375 79.96 L 78.375 97.249 C 78.375 97.433 78.396 97.61 78.43 97.783 C 76.995 98.382 75.984 99.799 75.984 101.448 C 75.984 102.167 76.568 102.752 77.287 102.752 L 85.211 102.752 C 85.93 102.752 86.515 102.167 86.515 101.448 L 86.515 100.138 C 86.515 99.446 86.243 98.821 85.809 98.347 C 85.953 98.023 86.041 97.664 86.041 97.281 L 86.501 83.12 C 86.506 82.988 86.66 82.846 86.883 82.846 C 87.107 82.846 87.261 82.988 87.266 83.12 L 87.724 97.249 C 87.724 97.644 87.814 98.012 87.96 98.343 C 87.524 98.817 87.251 99.444 87.251 100.138 L 87.251 101.448 C 87.251 102.167 87.836 102.752 88.555 102.752 L 96.479 102.752 C 97.197 102.752 97.782 102.167 97.782 101.448 C 97.782 99.799 96.771 98.382 95.336 97.783 C 95.37 97.61 95.391 97.433 95.391 97.249 L 95.389 79.96 L 96.575 79.96 C 97.385 79.96 98.157 79.613 98.694 79.007 C 99.232 78.402 99.484 77.594 99.388 76.791 L 99.357 76.532 C 99.393 76.501 99.439 76.484 99.472 76.448 C 99.662 76.234 99.751 75.949 99.718 75.666 Z M 49.964 22.97 L 56.106 22.97 L 56.107 26.439 L 49.964 26.439 L 49.964 22.97 Z M 22.031 47.803 C 21.957 48.208 21.561 48.505 21.125 48.519 C 21.245 48.03 21.329 47.537 21.382 47.044 C 21.393 47.045 21.402 47.041 21.413 47.042 C 21.629 47.065 21.81 47.163 21.924 47.316 C 21.996 47.413 22.073 47.576 22.031 47.803 Z M 21.733 50.459 L 21.725 51.248 C 21.725 51.534 21.492 51.767 21.206 51.767 L 19.805 51.767 C 20.053 51.346 20.279 50.908 20.476 50.454 C 20.575 50.476 20.671 50.506 20.773 50.517 C 20.883 50.53 20.992 50.535 21.101 50.535 C 21.317 50.535 21.528 50.504 21.733 50.459 Z M 12.502 35.895 L 14.376 35.895 C 18.477 35.895 21.813 38.945 21.813 42.683 L 21.788 45.087 C 21.735 45.078 21.685 45.059 21.63 45.053 C 21.554 45.045 21.479 45.052 21.403 45.05 C 21.363 44.604 21.302 44.155 21.199 43.69 C 21.098 43.239 20.701 42.915 20.239 42.907 C 18.004 42.871 15.894 41.898 14.596 40.303 C 14.026 39.605 12.853 39.604 12.282 40.304 C 10.984 41.898 8.874 42.871 6.639 42.907 C 6.176 42.915 5.779 43.239 5.679 43.69 C 5.575 44.155 5.515 44.605 5.475 45.051 C 5.398 45.053 5.324 45.045 5.247 45.053 C 5.193 45.059 5.143 45.078 5.09 45.087 L 5.066 42.694 C 5.066 38.945 8.401 35.895 12.502 35.895 Z M 4.954 47.316 C 5.068 47.163 5.25 47.065 5.465 47.042 C 5.475 47.041 5.485 47.041 5.495 47.04 C 5.549 47.534 5.633 48.029 5.752 48.519 C 5.318 48.507 4.921 48.208 4.847 47.803 C 4.805 47.575 4.882 47.413 4.954 47.316 Z M 5.672 51.767 C 5.385 51.767 5.152 51.534 5.152 51.238 L 5.145 50.46 C 5.35 50.504 5.56 50.535 5.777 50.535 C 5.885 50.535 5.995 50.53 6.105 50.517 C 6.207 50.506 6.303 50.476 6.402 50.454 C 6.598 50.908 6.825 51.346 7.073 51.767 L 5.672 51.767 L 5.672 51.767 Z M 7.425 45.91 C 7.425 45.564 7.449 45.216 7.498 44.861 C 9.821 44.636 11.928 43.629 13.439 42.017 C 14.95 43.629 17.057 44.636 19.38 44.861 C 19.428 45.216 19.452 45.564 19.452 45.91 C 19.452 50.073 16.53 54.009 13.439 54.009 C 10.348 54.009 7.425 50.073 7.425 45.91 Z M 18.267 57.734 C 18.349 57.694 18.509 57.638 18.673 57.697 C 18.874 57.77 19.065 57.862 19.255 57.955 C 19.005 58.233 18.322 58.681 17.161 58.81 C 16.606 58.873 15.942 58.73 15.338 58.498 C 16.498 58.361 17.519 58.1 18.267 57.734 Z M 15.129 55.76 L 15.129 56.509 C 14.595 56.573 14.023 56.609 13.439 56.609 C 12.855 56.609 12.283 56.573 11.749 56.509 L 11.749 55.76 C 12.291 55.92 12.855 56.009 13.439 56.009 C 14.023 56.009 14.587 55.92 15.129 55.76 Z M 8.205 57.697 C 8.369 57.638 8.53 57.695 8.611 57.735 C 9.359 58.1 10.379 58.36 11.538 58.498 C 10.935 58.729 10.272 58.871 9.717 58.811 C 8.556 58.682 7.873 58.233 7.623 57.955 C 7.813 57.862 8.004 57.77 8.205 57.697 Z M 4.73 77.96 L 3.746 77.96 C 3.505 77.96 3.284 77.861 3.124 77.681 C 2.964 77.5 2.892 77.269 2.92 77.03 L 2.95 76.783 L 4.764 76.783 L 4.73 77.96 Z M 11.071 100.752 L 4.666 100.752 C 4.948 100.007 5.669 99.476 6.511 99.476 L 10.409 99.476 C 10.774 99.476 11.071 99.773 11.071 100.138 L 11.071 100.752 L 11.071 100.752 Z M 8.056 87.028 L 10.793 87.028 L 10.536 97.489 C 10.493 97.487 10.453 97.476 10.409 97.476 L 8.057 97.476 L 8.056 87.028 Z M 6.529 85.028 L 6.865 73.262 L 20.013 73.262 L 20.349 85.028 L 6.529 85.028 Z M 18.821 87.028 L 18.821 97.476 L 16.468 97.476 C 16.425 97.476 16.385 97.487 16.342 97.489 L 16.084 87.028 L 18.821 87.028 Z M 22.212 100.752 L 15.807 100.752 L 15.807 100.138 C 15.807 99.773 16.104 99.476 16.468 99.476 L 20.366 99.476 C 21.209 99.476 21.93 100.007 22.212 100.752 Z M 23.754 77.68 C 23.594 77.861 23.373 77.96 23.131 77.96 L 22.147 77.96 L 22.114 76.783 L 23.928 76.783 L 23.958 77.03 C 23.986 77.269 23.914 77.5 23.754 77.68 Z M 22.057 74.783 L 21.807 66.053 C 21.792 65.5 21.31 65.084 20.779 65.081 C 20.227 65.098 19.793 65.558 19.808 66.11 L 19.955 71.262 L 6.923 71.262 L 7.07 66.11 C 7.086 65.558 6.651 65.098 6.099 65.081 C 5.559 65.085 5.087 65.5 5.071 66.053 L 4.821 74.783 L 2.722 74.783 L 4.18 62.446 C 4.442 61.155 5.094 60 5.999 59.11 C 6.654 59.972 7.917 60.623 9.497 60.799 C 9.657 60.816 9.82 60.824 9.984 60.824 C 11.191 60.824 12.487 60.37 13.439 59.79 C 14.52 60.448 16.044 60.947 17.381 60.798 C 18.961 60.622 20.224 59.972 20.878 59.11 C 21.773 59.99 22.422 61.13 22.689 62.404 L 24.155 74.783 L 22.057 74.783 L 22.057 74.783 Z M 27.763 77.868 L 25.855 77.868 C 25.95 77.521 25.987 77.156 25.943 76.791 L 25.912 76.533 C 25.949 76.502 25.996 76.484 26.028 76.448 C 26.218 76.234 26.308 75.949 26.274 75.666 L 26.113 74.305 L 27.763 74.305 L 27.763 77.868 Z M 27.763 72.705 L 25.923 72.705 L 25.468 68.866 L 27.763 68.866 L 27.763 72.705 L 27.763 72.705 Z M 27.763 67.267 L 25.279 67.267 L 24.824 63.428 L 27.763 63.428 L 27.763 67.267 Z M 27.763 61.828 L 24.598 61.828 C 24.262 60.374 23.55 59.057 22.568 57.99 L 27.763 57.99 L 27.763 61.828 Z M 27.763 56.39 L 20.563 56.39 C 20.178 56.172 19.781 55.973 19.36 55.819 C 18.723 55.585 18.022 55.628 17.388 55.938 C 17.309 55.976 17.219 56.012 17.129 56.048 L 17.129 54.762 C 17.538 54.472 17.923 54.137 18.285 53.767 L 21.206 53.767 C 22.117 53.767 22.91 53.276 23.352 52.552 L 27.763 52.552 L 27.763 56.39 L 27.763 56.39 Z M 27.763 50.952 L 23.728 50.952 L 23.749 48.886 C 23.86 48.66 23.951 48.422 23.998 48.165 C 24.047 47.903 24.043 47.643 24.015 47.388 L 27.763 47.388 L 27.763 50.952 L 27.763 50.952 Z M 47.964 77.868 L 43.097 77.868 L 43.097 71.002 L 47.964 71.002 L 47.964 77.868 Z M 54.83 77.868 L 49.964 77.868 L 49.964 71.002 L 54.83 71.002 L 54.83 77.868 Z M 55.325 69.002 L 42.603 69.002 L 42.603 67.227 L 55.325 67.227 L 55.325 69.002 L 55.325 69.002 Z M 68.165 77.868 L 56.83 77.868 L 56.83 70.846 C 57.121 70.671 57.325 70.367 57.325 70.002 L 57.325 66.227 C 57.325 65.674 56.878 65.227 56.325 65.227 L 41.603 65.227 C 41.05 65.227 40.603 65.674 40.603 66.227 L 40.603 70.002 C 40.603 70.366 40.807 70.67 41.097 70.845 L 41.097 77.868 L 29.763 77.868 L 29.763 47.087 C 29.763 46.522 30.027 46.007 30.471 45.71 L 48.18 33.819 C 48.665 33.495 49.264 33.495 49.747 33.819 L 67.457 45.71 L 67.457 45.71 C 67.9 46.007 68.165 46.522 68.165 47.087 L 68.165 77.868 Z M 86.883 54.009 C 83.792 54.009 80.869 50.073 80.869 45.91 C 80.869 45.565 80.894 45.217 80.942 44.861 C 83.265 44.636 85.372 43.629 86.883 42.017 C 88.394 43.629 90.501 44.636 92.824 44.861 C 92.872 45.217 92.897 45.565 92.897 45.91 C 92.897 50.073 89.974 54.009 86.883 54.009 Z M 88.573 55.76 L 88.573 56.509 C 88.039 56.573 87.467 56.609 86.883 56.609 C 86.299 56.609 85.727 56.573 85.193 56.509 L 85.193 55.76 C 85.735 55.92 86.299 56.009 86.883 56.009 C 87.467 56.009 88.032 55.92 88.573 55.76 Z M 95.476 47.803 C 95.401 48.208 95.001 48.504 94.57 48.519 C 94.689 48.029 94.773 47.534 94.827 47.04 C 94.837 47.041 94.847 47.041 94.857 47.042 C 95.072 47.065 95.254 47.163 95.368 47.316 C 95.44 47.413 95.518 47.576 95.476 47.803 Z M 78.51 42.694 C 78.51 38.945 81.846 35.895 85.945 35.895 L 87.82 35.895 C 91.921 35.895 95.257 38.945 95.257 42.694 L 95.257 44.173 C 95.257 44.506 95.226 44.8 95.18 45.075 C 95.144 45.07 95.111 45.057 95.075 45.053 C 94.998 45.045 94.924 45.053 94.847 45.05 C 94.807 44.605 94.747 44.156 94.644 43.691 C 94.543 43.239 94.146 42.915 93.684 42.907 C 91.447 42.871 89.338 41.898 88.04 40.304 C 87.47 39.604 86.296 39.603 85.726 40.304 C 84.428 41.898 82.318 42.871 80.082 42.907 C 79.62 42.915 79.223 43.239 79.122 43.691 C 79.019 44.157 78.958 44.606 78.918 45.051 C 78.842 45.053 78.768 45.045 78.691 45.053 C 78.655 45.057 78.622 45.07 78.587 45.076 C 78.541 44.8 78.51 44.506 78.51 44.173 L 78.51 42.694 L 78.51 42.694 Z M 78.399 47.316 C 78.512 47.163 78.693 47.065 78.909 47.042 C 78.919 47.041 78.929 47.041 78.939 47.04 C 78.992 47.534 79.076 48.029 79.196 48.519 C 78.757 48.505 78.365 48.208 78.291 47.803 C 78.249 47.575 78.326 47.412 78.399 47.316 Z M 70.165 47.388 L 76.308 47.388 C 76.28 47.643 76.276 47.903 76.324 48.165 C 76.573 49.526 77.843 50.534 79.234 50.534 C 79.338 50.534 79.443 50.529 79.549 50.517 C 79.651 50.506 79.747 50.476 79.846 50.454 C 79.919 50.623 79.999 50.787 80.079 50.952 L 70.165 50.952 L 70.165 47.388 L 70.165 47.388 Z M 70.165 52.552 L 81.023 52.552 C 81.641 53.424 82.372 54.18 83.193 54.763 L 83.193 56.048 C 83.103 56.013 83.012 55.977 82.933 55.938 C 82.298 55.628 81.599 55.585 80.961 55.819 C 80.541 55.973 80.144 56.172 79.76 56.39 L 70.165 56.39 L 70.165 52.552 L 70.165 52.552 Z M 70.165 77.868 L 70.165 74.305 L 74.209 74.305 L 74.048 75.666 C 74.015 75.949 74.104 76.234 74.294 76.448 C 74.326 76.484 74.372 76.501 74.409 76.532 L 74.378 76.792 C 74.335 77.157 74.372 77.521 74.467 77.868 L 70.165 77.868 Z M 74.399 72.705 L 70.165 72.705 L 70.165 68.866 L 74.853 68.866 L 74.399 72.705 Z M 75.043 67.267 L 70.165 67.267 L 70.165 63.428 L 75.498 63.428 L 75.043 67.267 Z M 70.165 61.828 L 70.165 57.99 L 77.76 57.99 C 76.79 59.049 76.082 60.361 75.732 61.828 L 70.165 61.828 Z M 77.191 77.96 C 76.949 77.96 76.729 77.861 76.568 77.681 C 76.408 77.5 76.336 77.269 76.364 77.03 L 76.394 76.783 L 78.514 76.783 L 78.438 77.96 L 77.191 77.96 L 77.191 77.96 Z M 84.515 100.752 L 78.11 100.752 C 78.363 100.086 78.973 99.613 79.701 99.516 C 79.957 99.638 80.237 99.706 80.531 99.706 L 83.886 99.706 C 84.029 99.706 84.168 99.689 84.303 99.658 C 84.432 99.779 84.515 99.948 84.515 100.138 L 84.515 100.752 L 84.515 100.752 Z M 86.883 80.846 C 85.588 80.846 84.543 81.817 84.503 83.056 L 84.042 97.249 C 84.042 97.522 83.917 97.687 83.886 97.706 L 80.553 97.71 C 80.5 97.687 80.375 97.522 80.375 97.249 L 80.373 79.01 L 80.595 75.574 L 93.172 75.574 L 93.391 78.946 L 93.391 97.249 C 93.391 97.522 93.266 97.687 93.234 97.706 L 89.901 97.71 C 89.849 97.687 89.724 97.522 89.723 97.217 L 89.264 83.056 C 89.224 81.817 88.178 80.846 86.883 80.846 Z M 95.655 100.752 L 89.251 100.752 L 89.251 100.138 C 89.251 99.948 89.334 99.779 89.463 99.658 C 89.598 99.689 89.737 99.706 89.88 99.706 L 93.234 99.706 C 93.529 99.706 93.809 99.638 94.065 99.516 C 94.793 99.613 95.403 100.086 95.655 100.752 Z M 97.198 77.68 C 97.038 77.861 96.817 77.96 96.575 77.96 L 95.329 77.96 L 95.254 76.783 L 97.372 76.783 L 97.401 77.03 C 97.431 77.269 97.359 77.5 97.198 77.68 Z M 95.781 74.783 C 95.801 74.693 95.826 74.602 95.819 74.508 L 95.25 66.015 C 95.213 65.464 94.732 65.063 94.186 65.083 C 93.634 65.12 93.217 65.597 93.254 66.148 L 93.752 73.574 L 80.014 73.574 L 80.513 66.149 C 80.55 65.597 80.133 65.12 79.582 65.083 C 79.014 65.06 78.555 65.464 78.517 66.014 L 77.946 74.507 C 77.94 74.602 77.965 74.692 77.985 74.783 L 76.166 74.783 L 77.625 62.446 C 78.067 60.263 79.609 58.443 81.649 57.697 C 81.813 57.637 81.975 57.695 82.055 57.735 C 83.192 58.29 84.951 58.609 86.883 58.609 C 88.815 58.609 90.574 58.29 91.71 57.735 C 91.792 57.695 91.952 57.637 92.117 57.697 C 94.144 58.438 95.679 60.239 96.133 62.405 L 97.6 74.783 L 95.781 74.783 Z M 89.214 50.37 C 89.214 51.353 88.191 52.122 86.883 52.122 C 85.575 52.122 84.552 51.353 84.552 50.37 C 84.552 49.928 84.91 49.571 85.352 49.571 C 85.774 49.571 86.118 49.896 86.15 50.31 C 86.221 50.38 86.474 50.523 86.883 50.523 C 87.333 50.523 87.593 50.35 87.632 50.291 C 87.632 49.849 87.982 49.531 88.423 49.531 C 88.865 49.531 89.214 49.928 89.214 50.37 Z M 84.621 47.009 C 84.621 47.604 84.253 48.053 83.766 48.053 C 83.279 48.053 82.911 47.604 82.911 47.009 C 82.911 46.414 83.279 45.965 83.766 45.965 C 84.253 45.965 84.621 46.414 84.621 47.009 Z M 90.855 47.009 C 90.855 47.604 90.487 48.053 90 48.053 C 89.513 48.053 89.146 47.604 89.146 47.009 C 89.146 46.414 89.513 45.965 90 45.965 C 90.487 45.965 90.855 46.414 90.855 47.009 Z M 88.199 61.246 C 88.199 61.973 87.61 62.563 86.883 62.563 C 86.156 62.563 85.567 61.973 85.567 61.246 C 85.567 60.519 86.156 59.93 86.883 59.93 C 87.61 59.93 88.199 60.519 88.199 61.246 Z M 88.199 65.009 C 88.199 65.736 87.61 66.325 86.883 66.325 C 86.156 66.325 85.567 65.736 85.567 65.009 C 85.567 64.282 86.156 63.693 86.883 63.693 C 87.61 63.693 88.199 64.282 88.199 65.009 Z M 14.755 63.127 C 14.755 63.854 14.166 64.444 13.439 64.444 C 12.712 64.444 12.123 63.854 12.123 63.127 C 12.123 62.4 12.712 61.811 13.439 61.811 C 14.166 61.811 14.755 62.4 14.755 63.127 Z M 14.755 66.89 C 14.755 67.617 14.166 68.206 13.439 68.206 C 12.712 68.206 12.123 67.617 12.123 66.89 C 12.123 66.163 12.712 65.574 13.439 65.574 C 14.166 65.574 14.755 66.163 14.755 66.89 Z M 11.108 50.37 C 11.108 49.928 11.466 49.57 11.908 49.57 C 12.329 49.57 12.674 49.896 12.706 50.309 C 12.777 50.38 13.029 50.523 13.439 50.523 C 13.889 50.523 14.149 50.35 14.188 50.291 C 14.188 49.849 14.537 49.531 14.979 49.531 C 15.421 49.531 15.77 49.928 15.77 50.37 C 15.77 51.353 14.746 52.122 13.439 52.122 C 12.131 52.122 11.108 51.353 11.108 50.37 Z M 10.322 48.053 C 9.835 48.053 9.467 47.604 9.467 47.009 C 9.467 46.414 9.835 45.965 10.322 45.965 C 10.809 45.965 11.176 46.414 11.176 47.009 C 11.176 47.604 10.809 48.053 10.322 48.053 Z M 15.702 47.009 C 15.702 46.414 16.069 45.965 16.556 45.965 C 17.043 45.965 17.411 46.414 17.411 47.009 C 17.411 47.604 17.043 48.053 16.556 48.053 C 16.069 48.053 15.702 47.604 15.702 47.009 Z" style="fill: rgb(255, 255, 255);"/>
</svg>